G04 #@! TF.GenerationSoftware,KiCad,Pcbnew,(5.1.6)-1*
G04 #@! TF.CreationDate,2020-10-18T19:43:42+02:00*
G04 #@! TF.ProjectId,BreadboardPowerSupply,42726561-6462-46f6-9172-64506f776572,v1*
G04 #@! TF.SameCoordinates,Original*
G04 #@! TF.FileFunction,Copper,L1,Top*
G04 #@! TF.FilePolarity,Positive*
%FSLAX46Y46*%
G04 Gerber Fmt 4.6, Leading zero omitted, Abs format (unit mm)*
G04 Created by KiCad (PCBNEW (5.1.6)-1) date 2020-10-18 19:43:42*
%MOMM*%
%LPD*%
G01*
G04 APERTURE LIST*
G04 #@! TA.AperFunction,ComponentPad*
%ADD10R,2.000000X2.000000*%
G04 #@! TD*
G04 #@! TA.AperFunction,ComponentPad*
%ADD11C,2.000000*%
G04 #@! TD*
G04 #@! TA.AperFunction,ComponentPad*
%ADD12R,2.200000X2.200000*%
G04 #@! TD*
G04 #@! TA.AperFunction,ComponentPad*
%ADD13O,2.200000X2.200000*%
G04 #@! TD*
G04 #@! TA.AperFunction,ComponentPad*
%ADD14C,1.600000*%
G04 #@! TD*
G04 #@! TA.AperFunction,ComponentPad*
%ADD15R,1.600000X1.600000*%
G04 #@! TD*
G04 #@! TA.AperFunction,ComponentPad*
%ADD16R,1.800000X1.800000*%
G04 #@! TD*
G04 #@! TA.AperFunction,ComponentPad*
%ADD17C,1.800000*%
G04 #@! TD*
G04 #@! TA.AperFunction,ComponentPad*
%ADD18R,2.600000X2.600000*%
G04 #@! TD*
G04 #@! TA.AperFunction,ComponentPad*
%ADD19C,2.600000*%
G04 #@! TD*
G04 #@! TA.AperFunction,ComponentPad*
%ADD20R,1.700000X1.700000*%
G04 #@! TD*
G04 #@! TA.AperFunction,ComponentPad*
%ADD21O,1.700000X1.700000*%
G04 #@! TD*
G04 #@! TA.AperFunction,ComponentPad*
%ADD22O,1.600000X1.600000*%
G04 #@! TD*
G04 #@! TA.AperFunction,ComponentPad*
%ADD23R,1.900000X1.900000*%
G04 #@! TD*
G04 #@! TA.AperFunction,ComponentPad*
%ADD24C,1.900000*%
G04 #@! TD*
G04 #@! TA.AperFunction,ComponentPad*
%ADD25R,2.000000X1.905000*%
G04 #@! TD*
G04 #@! TA.AperFunction,ComponentPad*
%ADD26O,2.000000X1.905000*%
G04 #@! TD*
G04 #@! TA.AperFunction,Conductor*
%ADD27C,0.300000*%
G04 #@! TD*
G04 APERTURE END LIST*
D10*
X130175000Y-73914000D03*
D11*
X135175000Y-73914000D03*
D12*
X129032000Y-92583000D03*
D13*
X139192000Y-92583000D03*
D14*
X143002000Y-70398000D03*
D15*
X143002000Y-72898000D03*
D12*
X136779000Y-106299000D03*
D13*
X136779000Y-96139000D03*
X129032000Y-106299000D03*
D12*
X129032000Y-96139000D03*
D13*
X132905500Y-96139000D03*
D12*
X132905500Y-106299000D03*
D16*
X145029000Y-107188000D03*
D17*
X147569000Y-107188000D03*
X146304000Y-82423000D03*
D16*
X146304000Y-79883000D03*
D18*
X140970000Y-113284000D03*
D19*
X134970000Y-113284000D03*
X137970000Y-117984000D03*
D20*
X152654000Y-69977000D03*
D21*
X155194000Y-69977000D03*
X152654000Y-72517000D03*
X155194000Y-72517000D03*
X155194000Y-117475000D03*
X152654000Y-117475000D03*
X155194000Y-114935000D03*
D20*
X152654000Y-114935000D03*
D14*
X148590000Y-102074250D03*
D22*
X140970000Y-102074250D03*
X148590000Y-86246750D03*
D14*
X140970000Y-86246750D03*
D23*
X147320000Y-96520000D03*
D24*
X147320000Y-94020000D03*
X147320000Y-91520000D03*
D25*
X131572000Y-87630000D03*
D26*
X131572000Y-85090000D03*
X131572000Y-82550000D03*
D27*
X129032000Y-94739000D02*
X129032000Y-92583000D01*
X129032000Y-96139000D02*
X129032000Y-94739000D01*
X131524500Y-87630000D02*
X131572000Y-87630000D01*
X129032000Y-75057000D02*
X130175000Y-73914000D01*
X131572000Y-87630000D02*
X130272000Y-87630000D01*
X129286000Y-87757000D02*
X129032000Y-88011000D01*
X129286000Y-87630000D02*
X129286000Y-87757000D01*
X129032000Y-88011000D02*
X129032000Y-87630000D01*
X129032000Y-92583000D02*
X129032000Y-88011000D01*
X129286000Y-87630000D02*
X129032000Y-87630000D01*
X130272000Y-87630000D02*
X129286000Y-87630000D01*
X129286000Y-87503000D02*
X129032000Y-87249000D01*
X129286000Y-87630000D02*
X129286000Y-87503000D01*
X129032000Y-87630000D02*
X129032000Y-87249000D01*
X129032000Y-87249000D02*
X129032000Y-75057000D01*
X145976498Y-94020000D02*
X147320000Y-94020000D01*
X144010500Y-99033750D02*
X140970000Y-102074250D01*
X143002000Y-73998000D02*
X143002000Y-72898000D01*
X134450000Y-82550000D02*
X143002000Y-73998000D01*
X134450000Y-83142000D02*
X134450000Y-82550000D01*
X144010500Y-92702500D02*
X134450000Y-83142000D01*
X144025500Y-93606500D02*
X144439000Y-94020000D01*
X144010500Y-93606500D02*
X144025500Y-93606500D01*
X144439000Y-94020000D02*
X145976498Y-94020000D01*
X144010500Y-94020000D02*
X144439000Y-94020000D01*
X144010500Y-93606500D02*
X144010500Y-92702500D01*
X144010500Y-94020000D02*
X144010500Y-93606500D01*
X144439000Y-94020000D02*
X144439000Y-94067000D01*
X144439000Y-94052000D02*
X144010500Y-94480500D01*
X144439000Y-94020000D02*
X144439000Y-94052000D01*
X144010500Y-94020000D02*
X144010500Y-94480500D01*
X144010500Y-94480500D02*
X144010500Y-99033750D01*
X133985000Y-82550000D02*
X133985000Y-82677000D01*
X131572000Y-82550000D02*
X133985000Y-82550000D01*
X134239000Y-82804000D02*
X134175500Y-82867500D01*
X134239000Y-82550000D02*
X134239000Y-82804000D01*
X134175500Y-82867500D02*
X134450000Y-83142000D01*
X133985000Y-82677000D02*
X134175500Y-82867500D01*
X134239000Y-82550000D02*
X134450000Y-82550000D01*
X133985000Y-82550000D02*
X134239000Y-82550000D01*
X139370000Y-113284000D02*
X140970000Y-113284000D01*
X136779000Y-110693000D02*
X139370000Y-113284000D01*
X136779000Y-106299000D02*
X136779000Y-110693000D01*
X139192000Y-92583000D02*
X139192000Y-99441000D01*
X136779000Y-101854000D02*
X136779000Y-106299000D01*
X139192000Y-99441000D02*
X136779000Y-101854000D01*
X129032000Y-106299000D02*
X132905500Y-106299000D01*
X132905500Y-111219500D02*
X134970000Y-113284000D01*
X132905500Y-106299000D02*
X132905500Y-111219500D01*
X147569000Y-103095250D02*
X148590000Y-102074250D01*
X147569000Y-107188000D02*
X147569000Y-103095250D01*
X142480250Y-86246750D02*
X140970000Y-86246750D01*
X146304000Y-82423000D02*
X142480250Y-86246750D01*
X155194000Y-114935000D02*
X152654000Y-114935000D01*
X155194000Y-69977000D02*
X152654000Y-69977000D01*
X151504000Y-69977000D02*
X149860000Y-71621000D01*
X152654000Y-69977000D02*
X151504000Y-69977000D01*
X151504000Y-114935000D02*
X152654000Y-114935000D01*
X149860000Y-113291000D02*
X151504000Y-114935000D01*
X149735120Y-86233000D02*
X149860000Y-86233000D01*
X149721370Y-86246750D02*
X149735120Y-86233000D01*
X148590000Y-86246750D02*
X149721370Y-86246750D01*
X149860000Y-71621000D02*
X149860000Y-86233000D01*
X149352000Y-96520000D02*
X149860000Y-96520000D01*
X147320000Y-96520000D02*
X149352000Y-96520000D01*
X149352000Y-96520000D02*
X149479000Y-96520000D01*
X149860000Y-86233000D02*
X149860000Y-96139000D01*
X149860000Y-96139000D02*
X149860000Y-96520000D01*
X149860000Y-96520000D02*
X149860000Y-97028000D01*
X149860000Y-97028000D02*
X149860000Y-113291000D01*
X149352000Y-96520000D02*
X149860000Y-97028000D01*
X149352000Y-96520000D02*
X149860000Y-96012000D01*
M02*
