M48
; DRILL file {KiCad (5.1.6)-1} date 10/18/20 19:44:53
; FORMAT={-:-/ absolute / metric / decimal}
; #@! TF.CreationDate,2020-10-18T19:44:53+02:00
; #@! TF.GenerationSoftware,Kicad,Pcbnew,(5.1.6)-1
; #@! TF.FileFunction,Plated,1,2,PTH
FMAT,2
METRIC
T1C0.800
T2C0.900
T3C1.000
T4C1.100
T5C1.600
%
G90
G05
T1
X143.002Y-70.398
X143.002Y-72.898
X140.97Y-86.247
X148.59Y-86.247
X140.97Y-102.074
X148.59Y-102.074
T2
X146.304Y-79.883
X146.304Y-82.423
X147.32Y-91.52
X147.32Y-94.02
X147.32Y-96.52
X145.029Y-107.188
X147.569Y-107.188
T3
X130.175Y-73.914
X135.175Y-73.914
X152.654Y-114.935
X152.654Y-117.475
X155.194Y-114.935
X155.194Y-117.475
X152.654Y-69.977
X152.654Y-72.517
X155.194Y-69.977
X155.194Y-72.517
T4
X132.905Y-96.139
X132.905Y-106.299
X129.032Y-96.139
X129.032Y-106.299
X131.572Y-82.55
X131.572Y-85.09
X131.572Y-87.63
X136.779Y-96.139
X136.779Y-106.299
X129.032Y-92.583
X139.192Y-92.583
T5
X134.97Y-113.284
X137.97Y-117.984
X140.97Y-113.284
T0
M30
