G04 #@! TF.GenerationSoftware,KiCad,Pcbnew,(5.1.6)-1*
G04 #@! TF.CreationDate,2020-10-18T19:43:42+02:00*
G04 #@! TF.ProjectId,BreadboardPowerSupply,42726561-6462-46f6-9172-64506f776572,v1*
G04 #@! TF.SameCoordinates,Original*
G04 #@! TF.FileFunction,Soldermask,Bot*
G04 #@! TF.FilePolarity,Negative*
%FSLAX46Y46*%
G04 Gerber Fmt 4.6, Leading zero omitted, Abs format (unit mm)*
G04 Created by KiCad (PCBNEW (5.1.6)-1) date 2020-10-18 19:43:42*
%MOMM*%
%LPD*%
G01*
G04 APERTURE LIST*
%ADD10C,0.100000*%
G04 APERTURE END LIST*
D10*
G36*
X138364072Y-116684918D02*
G01*
X138581908Y-116775148D01*
X138609939Y-116786759D01*
X138721328Y-116861187D01*
X138831211Y-116934609D01*
X139019391Y-117122789D01*
X139167242Y-117344063D01*
X139184720Y-117386259D01*
X139269082Y-117589928D01*
X139321000Y-117850938D01*
X139321000Y-118117062D01*
X139269082Y-118378072D01*
X139167241Y-118623939D01*
X139019390Y-118845212D01*
X138831212Y-119033390D01*
X138609939Y-119181241D01*
X138609938Y-119181242D01*
X138609937Y-119181242D01*
X138364072Y-119283082D01*
X138103063Y-119335000D01*
X137836937Y-119335000D01*
X137575928Y-119283082D01*
X137330063Y-119181242D01*
X137330062Y-119181242D01*
X137330061Y-119181241D01*
X137108788Y-119033390D01*
X136920610Y-118845212D01*
X136772759Y-118623939D01*
X136670918Y-118378072D01*
X136619000Y-118117062D01*
X136619000Y-117850938D01*
X136670918Y-117589928D01*
X136755280Y-117386259D01*
X136772758Y-117344063D01*
X136920609Y-117122789D01*
X137108789Y-116934609D01*
X137218672Y-116861187D01*
X137330061Y-116786759D01*
X137358093Y-116775148D01*
X137575928Y-116684918D01*
X137836937Y-116633000D01*
X138103063Y-116633000D01*
X138364072Y-116684918D01*
G37*
G36*
X155307512Y-116578927D02*
G01*
X155456812Y-116608624D01*
X155620784Y-116676544D01*
X155768354Y-116775147D01*
X155893853Y-116900646D01*
X155992456Y-117048216D01*
X156060376Y-117212188D01*
X156095000Y-117386259D01*
X156095000Y-117563741D01*
X156060376Y-117737812D01*
X155992456Y-117901784D01*
X155893853Y-118049354D01*
X155768354Y-118174853D01*
X155620784Y-118273456D01*
X155456812Y-118341376D01*
X155307512Y-118371073D01*
X155282742Y-118376000D01*
X155105258Y-118376000D01*
X155080488Y-118371073D01*
X154931188Y-118341376D01*
X154767216Y-118273456D01*
X154619646Y-118174853D01*
X154494147Y-118049354D01*
X154395544Y-117901784D01*
X154327624Y-117737812D01*
X154293000Y-117563741D01*
X154293000Y-117386259D01*
X154327624Y-117212188D01*
X154395544Y-117048216D01*
X154494147Y-116900646D01*
X154619646Y-116775147D01*
X154767216Y-116676544D01*
X154931188Y-116608624D01*
X155080488Y-116578927D01*
X155105258Y-116574000D01*
X155282742Y-116574000D01*
X155307512Y-116578927D01*
G37*
G36*
X152767512Y-116578927D02*
G01*
X152916812Y-116608624D01*
X153080784Y-116676544D01*
X153228354Y-116775147D01*
X153353853Y-116900646D01*
X153452456Y-117048216D01*
X153520376Y-117212188D01*
X153555000Y-117386259D01*
X153555000Y-117563741D01*
X153520376Y-117737812D01*
X153452456Y-117901784D01*
X153353853Y-118049354D01*
X153228354Y-118174853D01*
X153080784Y-118273456D01*
X152916812Y-118341376D01*
X152767512Y-118371073D01*
X152742742Y-118376000D01*
X152565258Y-118376000D01*
X152540488Y-118371073D01*
X152391188Y-118341376D01*
X152227216Y-118273456D01*
X152079646Y-118174853D01*
X151954147Y-118049354D01*
X151855544Y-117901784D01*
X151787624Y-117737812D01*
X151753000Y-117563741D01*
X151753000Y-117386259D01*
X151787624Y-117212188D01*
X151855544Y-117048216D01*
X151954147Y-116900646D01*
X152079646Y-116775147D01*
X152227216Y-116676544D01*
X152391188Y-116608624D01*
X152540488Y-116578927D01*
X152565258Y-116574000D01*
X152742742Y-116574000D01*
X152767512Y-116578927D01*
G37*
G36*
X155307512Y-114038927D02*
G01*
X155456812Y-114068624D01*
X155620784Y-114136544D01*
X155768354Y-114235147D01*
X155893853Y-114360646D01*
X155992456Y-114508216D01*
X156060376Y-114672188D01*
X156095000Y-114846259D01*
X156095000Y-115023741D01*
X156060376Y-115197812D01*
X155992456Y-115361784D01*
X155893853Y-115509354D01*
X155768354Y-115634853D01*
X155620784Y-115733456D01*
X155456812Y-115801376D01*
X155307512Y-115831073D01*
X155282742Y-115836000D01*
X155105258Y-115836000D01*
X155080488Y-115831073D01*
X154931188Y-115801376D01*
X154767216Y-115733456D01*
X154619646Y-115634853D01*
X154494147Y-115509354D01*
X154395544Y-115361784D01*
X154327624Y-115197812D01*
X154293000Y-115023741D01*
X154293000Y-114846259D01*
X154327624Y-114672188D01*
X154395544Y-114508216D01*
X154494147Y-114360646D01*
X154619646Y-114235147D01*
X154767216Y-114136544D01*
X154931188Y-114068624D01*
X155080488Y-114038927D01*
X155105258Y-114034000D01*
X155282742Y-114034000D01*
X155307512Y-114038927D01*
G37*
G36*
X153555000Y-115836000D02*
G01*
X151753000Y-115836000D01*
X151753000Y-114034000D01*
X153555000Y-114034000D01*
X153555000Y-115836000D01*
G37*
G36*
X135364072Y-111984918D02*
G01*
X135609939Y-112086759D01*
X135721328Y-112161187D01*
X135831211Y-112234609D01*
X136019391Y-112422789D01*
X136167242Y-112644063D01*
X136269082Y-112889928D01*
X136321000Y-113150937D01*
X136321000Y-113417063D01*
X136269082Y-113678072D01*
X136167242Y-113923937D01*
X136019391Y-114145211D01*
X135831211Y-114333391D01*
X135721328Y-114406813D01*
X135609939Y-114481241D01*
X135609938Y-114481242D01*
X135609937Y-114481242D01*
X135364072Y-114583082D01*
X135103063Y-114635000D01*
X134836937Y-114635000D01*
X134575928Y-114583082D01*
X134330063Y-114481242D01*
X134330062Y-114481242D01*
X134330061Y-114481241D01*
X134218672Y-114406813D01*
X134108789Y-114333391D01*
X133920609Y-114145211D01*
X133772758Y-113923937D01*
X133670918Y-113678072D01*
X133619000Y-113417063D01*
X133619000Y-113150937D01*
X133670918Y-112889928D01*
X133772758Y-112644063D01*
X133920609Y-112422789D01*
X134108789Y-112234609D01*
X134218672Y-112161187D01*
X134330061Y-112086759D01*
X134575928Y-111984918D01*
X134836937Y-111933000D01*
X135103063Y-111933000D01*
X135364072Y-111984918D01*
G37*
G36*
X142321000Y-114635000D02*
G01*
X139619000Y-114635000D01*
X139619000Y-111933000D01*
X142321000Y-111933000D01*
X142321000Y-114635000D01*
G37*
G36*
X147846395Y-106273546D02*
G01*
X148019466Y-106345234D01*
X148019467Y-106345235D01*
X148175227Y-106449310D01*
X148307690Y-106581773D01*
X148343077Y-106634734D01*
X148411766Y-106737534D01*
X148483454Y-106910605D01*
X148520000Y-107094333D01*
X148520000Y-107281667D01*
X148483454Y-107465395D01*
X148411766Y-107638466D01*
X148411765Y-107638467D01*
X148307690Y-107794227D01*
X148175227Y-107926690D01*
X148096818Y-107979081D01*
X148019466Y-108030766D01*
X147846395Y-108102454D01*
X147662667Y-108139000D01*
X147475333Y-108139000D01*
X147291605Y-108102454D01*
X147118534Y-108030766D01*
X147041182Y-107979081D01*
X146962773Y-107926690D01*
X146830310Y-107794227D01*
X146726235Y-107638467D01*
X146726234Y-107638466D01*
X146654546Y-107465395D01*
X146618000Y-107281667D01*
X146618000Y-107094333D01*
X146654546Y-106910605D01*
X146726234Y-106737534D01*
X146794923Y-106634734D01*
X146830310Y-106581773D01*
X146962773Y-106449310D01*
X147118533Y-106345235D01*
X147118534Y-106345234D01*
X147291605Y-106273546D01*
X147475333Y-106237000D01*
X147662667Y-106237000D01*
X147846395Y-106273546D01*
G37*
G36*
X145980000Y-108139000D02*
G01*
X144078000Y-108139000D01*
X144078000Y-106237000D01*
X145980000Y-106237000D01*
X145980000Y-108139000D01*
G37*
G36*
X129256549Y-105170116D02*
G01*
X129367734Y-105192232D01*
X129577203Y-105278997D01*
X129765720Y-105404960D01*
X129926040Y-105565280D01*
X130052003Y-105753797D01*
X130138768Y-105963266D01*
X130183000Y-106185636D01*
X130183000Y-106412364D01*
X130138768Y-106634734D01*
X130052003Y-106844203D01*
X129926040Y-107032720D01*
X129765720Y-107193040D01*
X129577203Y-107319003D01*
X129367734Y-107405768D01*
X129256549Y-107427884D01*
X129145365Y-107450000D01*
X128918635Y-107450000D01*
X128807451Y-107427884D01*
X128696266Y-107405768D01*
X128486797Y-107319003D01*
X128298280Y-107193040D01*
X128137960Y-107032720D01*
X128011997Y-106844203D01*
X127925232Y-106634734D01*
X127881000Y-106412364D01*
X127881000Y-106185636D01*
X127925232Y-105963266D01*
X128011997Y-105753797D01*
X128137960Y-105565280D01*
X128298280Y-105404960D01*
X128486797Y-105278997D01*
X128696266Y-105192232D01*
X128807451Y-105170116D01*
X128918635Y-105148000D01*
X129145365Y-105148000D01*
X129256549Y-105170116D01*
G37*
G36*
X137930000Y-107450000D02*
G01*
X135628000Y-107450000D01*
X135628000Y-105148000D01*
X137930000Y-105148000D01*
X137930000Y-107450000D01*
G37*
G36*
X134056500Y-107450000D02*
G01*
X131754500Y-107450000D01*
X131754500Y-105148000D01*
X134056500Y-105148000D01*
X134056500Y-107450000D01*
G37*
G36*
X141218228Y-101255953D02*
G01*
X141373100Y-101320103D01*
X141512481Y-101413235D01*
X141631015Y-101531769D01*
X141724147Y-101671150D01*
X141788297Y-101826022D01*
X141821000Y-101990434D01*
X141821000Y-102158066D01*
X141788297Y-102322478D01*
X141724147Y-102477350D01*
X141631015Y-102616731D01*
X141512481Y-102735265D01*
X141373100Y-102828397D01*
X141218228Y-102892547D01*
X141053816Y-102925250D01*
X140886184Y-102925250D01*
X140721772Y-102892547D01*
X140566900Y-102828397D01*
X140427519Y-102735265D01*
X140308985Y-102616731D01*
X140215853Y-102477350D01*
X140151703Y-102322478D01*
X140119000Y-102158066D01*
X140119000Y-101990434D01*
X140151703Y-101826022D01*
X140215853Y-101671150D01*
X140308985Y-101531769D01*
X140427519Y-101413235D01*
X140566900Y-101320103D01*
X140721772Y-101255953D01*
X140886184Y-101223250D01*
X141053816Y-101223250D01*
X141218228Y-101255953D01*
G37*
G36*
X148838228Y-101255953D02*
G01*
X148993100Y-101320103D01*
X149132481Y-101413235D01*
X149251015Y-101531769D01*
X149344147Y-101671150D01*
X149408297Y-101826022D01*
X149441000Y-101990434D01*
X149441000Y-102158066D01*
X149408297Y-102322478D01*
X149344147Y-102477350D01*
X149251015Y-102616731D01*
X149132481Y-102735265D01*
X148993100Y-102828397D01*
X148838228Y-102892547D01*
X148673816Y-102925250D01*
X148506184Y-102925250D01*
X148341772Y-102892547D01*
X148186900Y-102828397D01*
X148047519Y-102735265D01*
X147928985Y-102616731D01*
X147835853Y-102477350D01*
X147771703Y-102322478D01*
X147739000Y-102158066D01*
X147739000Y-101990434D01*
X147771703Y-101826022D01*
X147835853Y-101671150D01*
X147928985Y-101531769D01*
X148047519Y-101413235D01*
X148186900Y-101320103D01*
X148341772Y-101255953D01*
X148506184Y-101223250D01*
X148673816Y-101223250D01*
X148838228Y-101255953D01*
G37*
G36*
X148321000Y-97521000D02*
G01*
X146319000Y-97521000D01*
X146319000Y-95519000D01*
X148321000Y-95519000D01*
X148321000Y-97521000D01*
G37*
G36*
X137003549Y-95010116D02*
G01*
X137114734Y-95032232D01*
X137324203Y-95118997D01*
X137512720Y-95244960D01*
X137673040Y-95405280D01*
X137799003Y-95593797D01*
X137885768Y-95803266D01*
X137930000Y-96025636D01*
X137930000Y-96252364D01*
X137885768Y-96474734D01*
X137799003Y-96684203D01*
X137673040Y-96872720D01*
X137512720Y-97033040D01*
X137324203Y-97159003D01*
X137114734Y-97245768D01*
X137003549Y-97267884D01*
X136892365Y-97290000D01*
X136665635Y-97290000D01*
X136554451Y-97267884D01*
X136443266Y-97245768D01*
X136233797Y-97159003D01*
X136045280Y-97033040D01*
X135884960Y-96872720D01*
X135758997Y-96684203D01*
X135672232Y-96474734D01*
X135628000Y-96252364D01*
X135628000Y-96025636D01*
X135672232Y-95803266D01*
X135758997Y-95593797D01*
X135884960Y-95405280D01*
X136045280Y-95244960D01*
X136233797Y-95118997D01*
X136443266Y-95032232D01*
X136554451Y-95010116D01*
X136665635Y-94988000D01*
X136892365Y-94988000D01*
X137003549Y-95010116D01*
G37*
G36*
X133130049Y-95010116D02*
G01*
X133241234Y-95032232D01*
X133450703Y-95118997D01*
X133639220Y-95244960D01*
X133799540Y-95405280D01*
X133925503Y-95593797D01*
X134012268Y-95803266D01*
X134056500Y-96025636D01*
X134056500Y-96252364D01*
X134012268Y-96474734D01*
X133925503Y-96684203D01*
X133799540Y-96872720D01*
X133639220Y-97033040D01*
X133450703Y-97159003D01*
X133241234Y-97245768D01*
X133130049Y-97267884D01*
X133018865Y-97290000D01*
X132792135Y-97290000D01*
X132680951Y-97267884D01*
X132569766Y-97245768D01*
X132360297Y-97159003D01*
X132171780Y-97033040D01*
X132011460Y-96872720D01*
X131885497Y-96684203D01*
X131798732Y-96474734D01*
X131754500Y-96252364D01*
X131754500Y-96025636D01*
X131798732Y-95803266D01*
X131885497Y-95593797D01*
X132011460Y-95405280D01*
X132171780Y-95244960D01*
X132360297Y-95118997D01*
X132569766Y-95032232D01*
X132680951Y-95010116D01*
X132792135Y-94988000D01*
X133018865Y-94988000D01*
X133130049Y-95010116D01*
G37*
G36*
X130183000Y-97290000D02*
G01*
X127881000Y-97290000D01*
X127881000Y-94988000D01*
X130183000Y-94988000D01*
X130183000Y-97290000D01*
G37*
G36*
X147611981Y-93057468D02*
G01*
X147794151Y-93132926D01*
X147958100Y-93242473D01*
X148097527Y-93381900D01*
X148207074Y-93545849D01*
X148282532Y-93728019D01*
X148321000Y-93921410D01*
X148321000Y-94118590D01*
X148282532Y-94311981D01*
X148207074Y-94494151D01*
X148097527Y-94658100D01*
X147958100Y-94797527D01*
X147794151Y-94907074D01*
X147611981Y-94982532D01*
X147418591Y-95021000D01*
X147221409Y-95021000D01*
X147124715Y-95001766D01*
X147028019Y-94982532D01*
X146845849Y-94907074D01*
X146681900Y-94797527D01*
X146542473Y-94658100D01*
X146432926Y-94494151D01*
X146357468Y-94311981D01*
X146319000Y-94118590D01*
X146319000Y-93921410D01*
X146357468Y-93728019D01*
X146432926Y-93545849D01*
X146542473Y-93381900D01*
X146681900Y-93242473D01*
X146845849Y-93132926D01*
X147028019Y-93057468D01*
X147124715Y-93038234D01*
X147221409Y-93019000D01*
X147418591Y-93019000D01*
X147611981Y-93057468D01*
G37*
G36*
X130183000Y-93734000D02*
G01*
X127881000Y-93734000D01*
X127881000Y-91432000D01*
X130183000Y-91432000D01*
X130183000Y-93734000D01*
G37*
G36*
X139416549Y-91454116D02*
G01*
X139527734Y-91476232D01*
X139737203Y-91562997D01*
X139925720Y-91688960D01*
X140086040Y-91849280D01*
X140212003Y-92037797D01*
X140298768Y-92247266D01*
X140343000Y-92469636D01*
X140343000Y-92696364D01*
X140298768Y-92918734D01*
X140212003Y-93128203D01*
X140086040Y-93316720D01*
X139925720Y-93477040D01*
X139737203Y-93603003D01*
X139527734Y-93689768D01*
X139416549Y-93711884D01*
X139305365Y-93734000D01*
X139078635Y-93734000D01*
X138967451Y-93711884D01*
X138856266Y-93689768D01*
X138646797Y-93603003D01*
X138458280Y-93477040D01*
X138297960Y-93316720D01*
X138171997Y-93128203D01*
X138085232Y-92918734D01*
X138041000Y-92696364D01*
X138041000Y-92469636D01*
X138085232Y-92247266D01*
X138171997Y-92037797D01*
X138297960Y-91849280D01*
X138458280Y-91688960D01*
X138646797Y-91562997D01*
X138856266Y-91476232D01*
X138967451Y-91454116D01*
X139078635Y-91432000D01*
X139305365Y-91432000D01*
X139416549Y-91454116D01*
G37*
G36*
X147611981Y-90557468D02*
G01*
X147794151Y-90632926D01*
X147958100Y-90742473D01*
X148097527Y-90881900D01*
X148207074Y-91045849D01*
X148207075Y-91045851D01*
X148282532Y-91228020D01*
X148321000Y-91421409D01*
X148321000Y-91618591D01*
X148301766Y-91715285D01*
X148282532Y-91811981D01*
X148207074Y-91994151D01*
X148097527Y-92158100D01*
X147958100Y-92297527D01*
X147794151Y-92407074D01*
X147611981Y-92482532D01*
X147515285Y-92501766D01*
X147418591Y-92521000D01*
X147221409Y-92521000D01*
X147028019Y-92482532D01*
X146845849Y-92407074D01*
X146681900Y-92297527D01*
X146542473Y-92158100D01*
X146432926Y-91994151D01*
X146357468Y-91811981D01*
X146338234Y-91715285D01*
X146319000Y-91618591D01*
X146319000Y-91421409D01*
X146357468Y-91228020D01*
X146432925Y-91045851D01*
X146432926Y-91045849D01*
X146542473Y-90881900D01*
X146681900Y-90742473D01*
X146845849Y-90632926D01*
X147028019Y-90557468D01*
X147221409Y-90519000D01*
X147418591Y-90519000D01*
X147611981Y-90557468D01*
G37*
G36*
X132623000Y-88633500D02*
G01*
X130521000Y-88633500D01*
X130521000Y-86626500D01*
X132623000Y-86626500D01*
X132623000Y-88633500D01*
G37*
G36*
X148838228Y-85428453D02*
G01*
X148993100Y-85492603D01*
X149132481Y-85585735D01*
X149251015Y-85704269D01*
X149344147Y-85843650D01*
X149408297Y-85998522D01*
X149441000Y-86162934D01*
X149441000Y-86330566D01*
X149408297Y-86494978D01*
X149344147Y-86649850D01*
X149251015Y-86789231D01*
X149132481Y-86907765D01*
X148993100Y-87000897D01*
X148838228Y-87065047D01*
X148673816Y-87097750D01*
X148506184Y-87097750D01*
X148341772Y-87065047D01*
X148186900Y-87000897D01*
X148047519Y-86907765D01*
X147928985Y-86789231D01*
X147835853Y-86649850D01*
X147771703Y-86494978D01*
X147739000Y-86330566D01*
X147739000Y-86162934D01*
X147771703Y-85998522D01*
X147835853Y-85843650D01*
X147928985Y-85704269D01*
X148047519Y-85585735D01*
X148186900Y-85492603D01*
X148341772Y-85428453D01*
X148506184Y-85395750D01*
X148673816Y-85395750D01*
X148838228Y-85428453D01*
G37*
G36*
X141218228Y-85428453D02*
G01*
X141373100Y-85492603D01*
X141512481Y-85585735D01*
X141631015Y-85704269D01*
X141724147Y-85843650D01*
X141788297Y-85998522D01*
X141821000Y-86162934D01*
X141821000Y-86330566D01*
X141788297Y-86494978D01*
X141724147Y-86649850D01*
X141631015Y-86789231D01*
X141512481Y-86907765D01*
X141373100Y-87000897D01*
X141218228Y-87065047D01*
X141053816Y-87097750D01*
X140886184Y-87097750D01*
X140721772Y-87065047D01*
X140566900Y-87000897D01*
X140427519Y-86907765D01*
X140308985Y-86789231D01*
X140215853Y-86649850D01*
X140151703Y-86494978D01*
X140119000Y-86330566D01*
X140119000Y-86162934D01*
X140151703Y-85998522D01*
X140215853Y-85843650D01*
X140308985Y-85704269D01*
X140427519Y-85585735D01*
X140566900Y-85492603D01*
X140721772Y-85428453D01*
X140886184Y-85395750D01*
X141053816Y-85395750D01*
X141218228Y-85428453D01*
G37*
G36*
X131717936Y-84091340D02*
G01*
X131816220Y-84101020D01*
X132005381Y-84158401D01*
X132179712Y-84251583D01*
X132332515Y-84376985D01*
X132457917Y-84529788D01*
X132551099Y-84704119D01*
X132608480Y-84893280D01*
X132627855Y-85090000D01*
X132608480Y-85286720D01*
X132551099Y-85475881D01*
X132457917Y-85650212D01*
X132332515Y-85803015D01*
X132179712Y-85928417D01*
X132005381Y-86021599D01*
X131816220Y-86078980D01*
X131717936Y-86088660D01*
X131668795Y-86093500D01*
X131475205Y-86093500D01*
X131426064Y-86088660D01*
X131327780Y-86078980D01*
X131138619Y-86021599D01*
X130964288Y-85928417D01*
X130811485Y-85803015D01*
X130686083Y-85650212D01*
X130592901Y-85475881D01*
X130535520Y-85286720D01*
X130516145Y-85090000D01*
X130535520Y-84893280D01*
X130592901Y-84704119D01*
X130686083Y-84529788D01*
X130811485Y-84376985D01*
X130964288Y-84251583D01*
X131138619Y-84158401D01*
X131327780Y-84101020D01*
X131426064Y-84091340D01*
X131475205Y-84086500D01*
X131668795Y-84086500D01*
X131717936Y-84091340D01*
G37*
G36*
X131717936Y-81551340D02*
G01*
X131816220Y-81561020D01*
X132005381Y-81618401D01*
X132179712Y-81711583D01*
X132332515Y-81836985D01*
X132457917Y-81989788D01*
X132551099Y-82164119D01*
X132608480Y-82353280D01*
X132627855Y-82550000D01*
X132608480Y-82746720D01*
X132551099Y-82935881D01*
X132457917Y-83110212D01*
X132332515Y-83263015D01*
X132179712Y-83388417D01*
X132005381Y-83481599D01*
X131816220Y-83538980D01*
X131717936Y-83548660D01*
X131668795Y-83553500D01*
X131475205Y-83553500D01*
X131426064Y-83548660D01*
X131327780Y-83538980D01*
X131138619Y-83481599D01*
X130964288Y-83388417D01*
X130811485Y-83263015D01*
X130686083Y-83110212D01*
X130592901Y-82935881D01*
X130535520Y-82746720D01*
X130516145Y-82550000D01*
X130535520Y-82353280D01*
X130592901Y-82164119D01*
X130686083Y-81989788D01*
X130811485Y-81836985D01*
X130964288Y-81711583D01*
X131138619Y-81618401D01*
X131327780Y-81561020D01*
X131426064Y-81551340D01*
X131475205Y-81546500D01*
X131668795Y-81546500D01*
X131717936Y-81551340D01*
G37*
G36*
X146581395Y-81508546D02*
G01*
X146754466Y-81580234D01*
X146754467Y-81580235D01*
X146910227Y-81684310D01*
X147042690Y-81816773D01*
X147042691Y-81816775D01*
X147146766Y-81972534D01*
X147218454Y-82145605D01*
X147255000Y-82329333D01*
X147255000Y-82516667D01*
X147218454Y-82700395D01*
X147146766Y-82873466D01*
X147146765Y-82873467D01*
X147042690Y-83029227D01*
X146910227Y-83161690D01*
X146831818Y-83214081D01*
X146754466Y-83265766D01*
X146581395Y-83337454D01*
X146397667Y-83374000D01*
X146210333Y-83374000D01*
X146026605Y-83337454D01*
X145853534Y-83265766D01*
X145776182Y-83214081D01*
X145697773Y-83161690D01*
X145565310Y-83029227D01*
X145461235Y-82873467D01*
X145461234Y-82873466D01*
X145389546Y-82700395D01*
X145353000Y-82516667D01*
X145353000Y-82329333D01*
X145389546Y-82145605D01*
X145461234Y-81972534D01*
X145565309Y-81816775D01*
X145565310Y-81816773D01*
X145697773Y-81684310D01*
X145853533Y-81580235D01*
X145853534Y-81580234D01*
X146026605Y-81508546D01*
X146210333Y-81472000D01*
X146397667Y-81472000D01*
X146581395Y-81508546D01*
G37*
G36*
X147255000Y-80834000D02*
G01*
X145353000Y-80834000D01*
X145353000Y-78932000D01*
X147255000Y-78932000D01*
X147255000Y-80834000D01*
G37*
G36*
X135481564Y-72903389D02*
G01*
X135579086Y-72943784D01*
X135672835Y-72982616D01*
X135835571Y-73091353D01*
X135844973Y-73097635D01*
X135991365Y-73244027D01*
X136106385Y-73416167D01*
X136185611Y-73607436D01*
X136226000Y-73810484D01*
X136226000Y-74017516D01*
X136185611Y-74220564D01*
X136106385Y-74411833D01*
X136106384Y-74411835D01*
X135991365Y-74583973D01*
X135844973Y-74730365D01*
X135672835Y-74845384D01*
X135672834Y-74845385D01*
X135672833Y-74845385D01*
X135481564Y-74924611D01*
X135278516Y-74965000D01*
X135071484Y-74965000D01*
X134868436Y-74924611D01*
X134677167Y-74845385D01*
X134677166Y-74845385D01*
X134677165Y-74845384D01*
X134505027Y-74730365D01*
X134358635Y-74583973D01*
X134243616Y-74411835D01*
X134243615Y-74411833D01*
X134164389Y-74220564D01*
X134124000Y-74017516D01*
X134124000Y-73810484D01*
X134164389Y-73607436D01*
X134243615Y-73416167D01*
X134358635Y-73244027D01*
X134505027Y-73097635D01*
X134514429Y-73091353D01*
X134677165Y-72982616D01*
X134770914Y-72943784D01*
X134868436Y-72903389D01*
X135071484Y-72863000D01*
X135278516Y-72863000D01*
X135481564Y-72903389D01*
G37*
G36*
X131226000Y-74965000D02*
G01*
X129124000Y-74965000D01*
X129124000Y-72863000D01*
X131226000Y-72863000D01*
X131226000Y-74965000D01*
G37*
G36*
X143853000Y-73749000D02*
G01*
X142151000Y-73749000D01*
X142151000Y-72047000D01*
X143853000Y-72047000D01*
X143853000Y-73749000D01*
G37*
G36*
X152767512Y-71620927D02*
G01*
X152916812Y-71650624D01*
X153080784Y-71718544D01*
X153228354Y-71817147D01*
X153353853Y-71942646D01*
X153452456Y-72090216D01*
X153520376Y-72254188D01*
X153555000Y-72428259D01*
X153555000Y-72605741D01*
X153520376Y-72779812D01*
X153452456Y-72943784D01*
X153353853Y-73091354D01*
X153228354Y-73216853D01*
X153080784Y-73315456D01*
X152916812Y-73383376D01*
X152767512Y-73413073D01*
X152742742Y-73418000D01*
X152565258Y-73418000D01*
X152540488Y-73413073D01*
X152391188Y-73383376D01*
X152227216Y-73315456D01*
X152079646Y-73216853D01*
X151954147Y-73091354D01*
X151855544Y-72943784D01*
X151787624Y-72779812D01*
X151753000Y-72605741D01*
X151753000Y-72428259D01*
X151787624Y-72254188D01*
X151855544Y-72090216D01*
X151954147Y-71942646D01*
X152079646Y-71817147D01*
X152227216Y-71718544D01*
X152391188Y-71650624D01*
X152540488Y-71620927D01*
X152565258Y-71616000D01*
X152742742Y-71616000D01*
X152767512Y-71620927D01*
G37*
G36*
X155307512Y-71620927D02*
G01*
X155456812Y-71650624D01*
X155620784Y-71718544D01*
X155768354Y-71817147D01*
X155893853Y-71942646D01*
X155992456Y-72090216D01*
X156060376Y-72254188D01*
X156095000Y-72428259D01*
X156095000Y-72605741D01*
X156060376Y-72779812D01*
X155992456Y-72943784D01*
X155893853Y-73091354D01*
X155768354Y-73216853D01*
X155620784Y-73315456D01*
X155456812Y-73383376D01*
X155307512Y-73413073D01*
X155282742Y-73418000D01*
X155105258Y-73418000D01*
X155080488Y-73413073D01*
X154931188Y-73383376D01*
X154767216Y-73315456D01*
X154619646Y-73216853D01*
X154494147Y-73091354D01*
X154395544Y-72943784D01*
X154327624Y-72779812D01*
X154293000Y-72605741D01*
X154293000Y-72428259D01*
X154327624Y-72254188D01*
X154395544Y-72090216D01*
X154494147Y-71942646D01*
X154619646Y-71817147D01*
X154767216Y-71718544D01*
X154931188Y-71650624D01*
X155080488Y-71620927D01*
X155105258Y-71616000D01*
X155282742Y-71616000D01*
X155307512Y-71620927D01*
G37*
G36*
X143250228Y-69579703D02*
G01*
X143405100Y-69643853D01*
X143544481Y-69736985D01*
X143663015Y-69855519D01*
X143756147Y-69994900D01*
X143820297Y-70149772D01*
X143853000Y-70314184D01*
X143853000Y-70481816D01*
X143820297Y-70646228D01*
X143756147Y-70801100D01*
X143663015Y-70940481D01*
X143544481Y-71059015D01*
X143405100Y-71152147D01*
X143250228Y-71216297D01*
X143085816Y-71249000D01*
X142918184Y-71249000D01*
X142753772Y-71216297D01*
X142598900Y-71152147D01*
X142459519Y-71059015D01*
X142340985Y-70940481D01*
X142247853Y-70801100D01*
X142183703Y-70646228D01*
X142151000Y-70481816D01*
X142151000Y-70314184D01*
X142183703Y-70149772D01*
X142247853Y-69994900D01*
X142340985Y-69855519D01*
X142459519Y-69736985D01*
X142598900Y-69643853D01*
X142753772Y-69579703D01*
X142918184Y-69547000D01*
X143085816Y-69547000D01*
X143250228Y-69579703D01*
G37*
G36*
X153555000Y-70878000D02*
G01*
X151753000Y-70878000D01*
X151753000Y-69076000D01*
X153555000Y-69076000D01*
X153555000Y-70878000D01*
G37*
G36*
X155307512Y-69080927D02*
G01*
X155456812Y-69110624D01*
X155620784Y-69178544D01*
X155768354Y-69277147D01*
X155893853Y-69402646D01*
X155992456Y-69550216D01*
X156060376Y-69714188D01*
X156095000Y-69888259D01*
X156095000Y-70065741D01*
X156060376Y-70239812D01*
X155992456Y-70403784D01*
X155893853Y-70551354D01*
X155768354Y-70676853D01*
X155620784Y-70775456D01*
X155456812Y-70843376D01*
X155307512Y-70873073D01*
X155282742Y-70878000D01*
X155105258Y-70878000D01*
X155080488Y-70873073D01*
X154931188Y-70843376D01*
X154767216Y-70775456D01*
X154619646Y-70676853D01*
X154494147Y-70551354D01*
X154395544Y-70403784D01*
X154327624Y-70239812D01*
X154293000Y-70065741D01*
X154293000Y-69888259D01*
X154327624Y-69714188D01*
X154395544Y-69550216D01*
X154494147Y-69402646D01*
X154619646Y-69277147D01*
X154767216Y-69178544D01*
X154931188Y-69110624D01*
X155080488Y-69080927D01*
X155105258Y-69076000D01*
X155282742Y-69076000D01*
X155307512Y-69080927D01*
G37*
M02*
