G04 #@! TF.GenerationSoftware,KiCad,Pcbnew,(5.1.6)-1*
G04 #@! TF.CreationDate,2020-10-18T19:43:42+02:00*
G04 #@! TF.ProjectId,BreadboardPowerSupply,42726561-6462-46f6-9172-64506f776572,v1*
G04 #@! TF.SameCoordinates,Original*
G04 #@! TF.FileFunction,Legend,Top*
G04 #@! TF.FilePolarity,Positive*
%FSLAX46Y46*%
G04 Gerber Fmt 4.6, Leading zero omitted, Abs format (unit mm)*
G04 Created by KiCad (PCBNEW (5.1.6)-1) date 2020-10-18 19:43:42*
%MOMM*%
%LPD*%
G01*
G04 APERTURE LIST*
%ADD10C,0.150000*%
%ADD11C,0.120000*%
%ADD12C,0.100000*%
G04 APERTURE END LIST*
D10*
X143724380Y-92900380D02*
X143724380Y-92709904D01*
X143772000Y-92614666D01*
X143867238Y-92519428D01*
X144057714Y-92471809D01*
X144391047Y-92471809D01*
X144581523Y-92519428D01*
X144676761Y-92614666D01*
X144724380Y-92709904D01*
X144724380Y-92900380D01*
X144676761Y-92995619D01*
X144581523Y-93090857D01*
X144391047Y-93138476D01*
X144057714Y-93138476D01*
X143867238Y-93090857D01*
X143772000Y-92995619D01*
X143724380Y-92900380D01*
X144200571Y-91709904D02*
X144200571Y-92043238D01*
X144724380Y-92043238D02*
X143724380Y-92043238D01*
X143724380Y-91567047D01*
X144200571Y-90852761D02*
X144200571Y-91186095D01*
X144724380Y-91186095D02*
X143724380Y-91186095D01*
X143724380Y-90709904D01*
X143724380Y-97393047D02*
X143724380Y-97202571D01*
X143772000Y-97107333D01*
X143867238Y-97012095D01*
X144057714Y-96964476D01*
X144391047Y-96964476D01*
X144581523Y-97012095D01*
X144676761Y-97107333D01*
X144724380Y-97202571D01*
X144724380Y-97393047D01*
X144676761Y-97488285D01*
X144581523Y-97583523D01*
X144391047Y-97631142D01*
X144057714Y-97631142D01*
X143867238Y-97583523D01*
X143772000Y-97488285D01*
X143724380Y-97393047D01*
X144724380Y-96535904D02*
X143724380Y-96535904D01*
X144724380Y-95964476D01*
X143724380Y-95964476D01*
X149669523Y-69429380D02*
X149193333Y-69429380D01*
X149145714Y-69905571D01*
X149193333Y-69857952D01*
X149288571Y-69810333D01*
X149526666Y-69810333D01*
X149621904Y-69857952D01*
X149669523Y-69905571D01*
X149717142Y-70000809D01*
X149717142Y-70238904D01*
X149669523Y-70334142D01*
X149621904Y-70381761D01*
X149526666Y-70429380D01*
X149288571Y-70429380D01*
X149193333Y-70381761D01*
X149145714Y-70334142D01*
X150002857Y-69429380D02*
X150336190Y-70429380D01*
X150669523Y-69429380D01*
X148590095Y-72017000D02*
X148494857Y-71969380D01*
X148352000Y-71969380D01*
X148209142Y-72017000D01*
X148113904Y-72112238D01*
X148066285Y-72207476D01*
X148018666Y-72397952D01*
X148018666Y-72540809D01*
X148066285Y-72731285D01*
X148113904Y-72826523D01*
X148209142Y-72921761D01*
X148352000Y-72969380D01*
X148447238Y-72969380D01*
X148590095Y-72921761D01*
X148637714Y-72874142D01*
X148637714Y-72540809D01*
X148447238Y-72540809D01*
X149066285Y-72969380D02*
X149066285Y-71969380D01*
X149637714Y-72969380D01*
X149637714Y-71969380D01*
X150113904Y-72969380D02*
X150113904Y-71969380D01*
X150352000Y-71969380D01*
X150494857Y-72017000D01*
X150590095Y-72112238D01*
X150637714Y-72207476D01*
X150685333Y-72397952D01*
X150685333Y-72540809D01*
X150637714Y-72731285D01*
X150590095Y-72826523D01*
X150494857Y-72921761D01*
X150352000Y-72969380D01*
X150113904Y-72969380D01*
X148590095Y-116975000D02*
X148494857Y-116927380D01*
X148352000Y-116927380D01*
X148209142Y-116975000D01*
X148113904Y-117070238D01*
X148066285Y-117165476D01*
X148018666Y-117355952D01*
X148018666Y-117498809D01*
X148066285Y-117689285D01*
X148113904Y-117784523D01*
X148209142Y-117879761D01*
X148352000Y-117927380D01*
X148447238Y-117927380D01*
X148590095Y-117879761D01*
X148637714Y-117832142D01*
X148637714Y-117498809D01*
X148447238Y-117498809D01*
X149066285Y-117927380D02*
X149066285Y-116927380D01*
X149637714Y-117927380D01*
X149637714Y-116927380D01*
X150113904Y-117927380D02*
X150113904Y-116927380D01*
X150352000Y-116927380D01*
X150494857Y-116975000D01*
X150590095Y-117070238D01*
X150637714Y-117165476D01*
X150685333Y-117355952D01*
X150685333Y-117498809D01*
X150637714Y-117689285D01*
X150590095Y-117784523D01*
X150494857Y-117879761D01*
X150352000Y-117927380D01*
X150113904Y-117927380D01*
X149669523Y-114387380D02*
X149193333Y-114387380D01*
X149145714Y-114863571D01*
X149193333Y-114815952D01*
X149288571Y-114768333D01*
X149526666Y-114768333D01*
X149621904Y-114815952D01*
X149669523Y-114863571D01*
X149717142Y-114958809D01*
X149717142Y-115196904D01*
X149669523Y-115292142D01*
X149621904Y-115339761D01*
X149526666Y-115387380D01*
X149288571Y-115387380D01*
X149193333Y-115339761D01*
X149145714Y-115292142D01*
X150002857Y-114387380D02*
X150336190Y-115387380D01*
X150669523Y-114387380D01*
D11*
X137795000Y-73914000D02*
G75*
G03*
X137795000Y-73914000I-5120000J0D01*
G01*
X132675000Y-68834000D02*
X132675000Y-78994000D01*
X132715000Y-68834000D02*
X132715000Y-78994000D01*
X132755000Y-68834000D02*
X132755000Y-78994000D01*
X132795000Y-68835000D02*
X132795000Y-78993000D01*
X132835000Y-68836000D02*
X132835000Y-78992000D01*
X132875000Y-68837000D02*
X132875000Y-78991000D01*
X132915000Y-68839000D02*
X132915000Y-78989000D01*
X132955000Y-68841000D02*
X132955000Y-78987000D01*
X132995000Y-68844000D02*
X132995000Y-78984000D01*
X133035000Y-68846000D02*
X133035000Y-78982000D01*
X133075000Y-68849000D02*
X133075000Y-78979000D01*
X133115000Y-68852000D02*
X133115000Y-78976000D01*
X133155000Y-68856000D02*
X133155000Y-78972000D01*
X133195000Y-68860000D02*
X133195000Y-78968000D01*
X133235000Y-68864000D02*
X133235000Y-78964000D01*
X133275000Y-68869000D02*
X133275000Y-78959000D01*
X133315000Y-68874000D02*
X133315000Y-78954000D01*
X133355000Y-68879000D02*
X133355000Y-78949000D01*
X133396000Y-68884000D02*
X133396000Y-78944000D01*
X133436000Y-68890000D02*
X133436000Y-78938000D01*
X133476000Y-68896000D02*
X133476000Y-78932000D01*
X133516000Y-68903000D02*
X133516000Y-78925000D01*
X133556000Y-68910000D02*
X133556000Y-78918000D01*
X133596000Y-68917000D02*
X133596000Y-78911000D01*
X133636000Y-68924000D02*
X133636000Y-78904000D01*
X133676000Y-68932000D02*
X133676000Y-78896000D01*
X133716000Y-68940000D02*
X133716000Y-78888000D01*
X133756000Y-68949000D02*
X133756000Y-78879000D01*
X133796000Y-68958000D02*
X133796000Y-78870000D01*
X133836000Y-68967000D02*
X133836000Y-78861000D01*
X133876000Y-68976000D02*
X133876000Y-78852000D01*
X133916000Y-68986000D02*
X133916000Y-78842000D01*
X133956000Y-68996000D02*
X133956000Y-72673000D01*
X133956000Y-75155000D02*
X133956000Y-78832000D01*
X133996000Y-69007000D02*
X133996000Y-72673000D01*
X133996000Y-75155000D02*
X133996000Y-78821000D01*
X134036000Y-69017000D02*
X134036000Y-72673000D01*
X134036000Y-75155000D02*
X134036000Y-78811000D01*
X134076000Y-69029000D02*
X134076000Y-72673000D01*
X134076000Y-75155000D02*
X134076000Y-78799000D01*
X134116000Y-69040000D02*
X134116000Y-72673000D01*
X134116000Y-75155000D02*
X134116000Y-78788000D01*
X134156000Y-69052000D02*
X134156000Y-72673000D01*
X134156000Y-75155000D02*
X134156000Y-78776000D01*
X134196000Y-69064000D02*
X134196000Y-72673000D01*
X134196000Y-75155000D02*
X134196000Y-78764000D01*
X134236000Y-69077000D02*
X134236000Y-72673000D01*
X134236000Y-75155000D02*
X134236000Y-78751000D01*
X134276000Y-69090000D02*
X134276000Y-72673000D01*
X134276000Y-75155000D02*
X134276000Y-78738000D01*
X134316000Y-69103000D02*
X134316000Y-72673000D01*
X134316000Y-75155000D02*
X134316000Y-78725000D01*
X134356000Y-69117000D02*
X134356000Y-72673000D01*
X134356000Y-75155000D02*
X134356000Y-78711000D01*
X134396000Y-69131000D02*
X134396000Y-72673000D01*
X134396000Y-75155000D02*
X134396000Y-78697000D01*
X134436000Y-69146000D02*
X134436000Y-72673000D01*
X134436000Y-75155000D02*
X134436000Y-78682000D01*
X134476000Y-69160000D02*
X134476000Y-72673000D01*
X134476000Y-75155000D02*
X134476000Y-78668000D01*
X134516000Y-69176000D02*
X134516000Y-72673000D01*
X134516000Y-75155000D02*
X134516000Y-78652000D01*
X134556000Y-69191000D02*
X134556000Y-72673000D01*
X134556000Y-75155000D02*
X134556000Y-78637000D01*
X134596000Y-69207000D02*
X134596000Y-72673000D01*
X134596000Y-75155000D02*
X134596000Y-78621000D01*
X134636000Y-69224000D02*
X134636000Y-72673000D01*
X134636000Y-75155000D02*
X134636000Y-78604000D01*
X134676000Y-69240000D02*
X134676000Y-72673000D01*
X134676000Y-75155000D02*
X134676000Y-78588000D01*
X134716000Y-69257000D02*
X134716000Y-72673000D01*
X134716000Y-75155000D02*
X134716000Y-78571000D01*
X134756000Y-69275000D02*
X134756000Y-72673000D01*
X134756000Y-75155000D02*
X134756000Y-78553000D01*
X134796000Y-69293000D02*
X134796000Y-72673000D01*
X134796000Y-75155000D02*
X134796000Y-78535000D01*
X134836000Y-69311000D02*
X134836000Y-72673000D01*
X134836000Y-75155000D02*
X134836000Y-78517000D01*
X134876000Y-69330000D02*
X134876000Y-72673000D01*
X134876000Y-75155000D02*
X134876000Y-78498000D01*
X134916000Y-69350000D02*
X134916000Y-72673000D01*
X134916000Y-75155000D02*
X134916000Y-78478000D01*
X134956000Y-69369000D02*
X134956000Y-72673000D01*
X134956000Y-75155000D02*
X134956000Y-78459000D01*
X134996000Y-69389000D02*
X134996000Y-72673000D01*
X134996000Y-75155000D02*
X134996000Y-78439000D01*
X135036000Y-69410000D02*
X135036000Y-72673000D01*
X135036000Y-75155000D02*
X135036000Y-78418000D01*
X135076000Y-69431000D02*
X135076000Y-72673000D01*
X135076000Y-75155000D02*
X135076000Y-78397000D01*
X135116000Y-69452000D02*
X135116000Y-72673000D01*
X135116000Y-75155000D02*
X135116000Y-78376000D01*
X135156000Y-69474000D02*
X135156000Y-72673000D01*
X135156000Y-75155000D02*
X135156000Y-78354000D01*
X135196000Y-69497000D02*
X135196000Y-72673000D01*
X135196000Y-75155000D02*
X135196000Y-78331000D01*
X135236000Y-69519000D02*
X135236000Y-72673000D01*
X135236000Y-75155000D02*
X135236000Y-78309000D01*
X135276000Y-69543000D02*
X135276000Y-72673000D01*
X135276000Y-75155000D02*
X135276000Y-78285000D01*
X135316000Y-69567000D02*
X135316000Y-72673000D01*
X135316000Y-75155000D02*
X135316000Y-78261000D01*
X135356000Y-69591000D02*
X135356000Y-72673000D01*
X135356000Y-75155000D02*
X135356000Y-78237000D01*
X135396000Y-69616000D02*
X135396000Y-72673000D01*
X135396000Y-75155000D02*
X135396000Y-78212000D01*
X135436000Y-69641000D02*
X135436000Y-72673000D01*
X135436000Y-75155000D02*
X135436000Y-78187000D01*
X135476000Y-69667000D02*
X135476000Y-72673000D01*
X135476000Y-75155000D02*
X135476000Y-78161000D01*
X135516000Y-69693000D02*
X135516000Y-72673000D01*
X135516000Y-75155000D02*
X135516000Y-78135000D01*
X135556000Y-69720000D02*
X135556000Y-72673000D01*
X135556000Y-75155000D02*
X135556000Y-78108000D01*
X135596000Y-69748000D02*
X135596000Y-72673000D01*
X135596000Y-75155000D02*
X135596000Y-78080000D01*
X135636000Y-69776000D02*
X135636000Y-72673000D01*
X135636000Y-75155000D02*
X135636000Y-78052000D01*
X135676000Y-69804000D02*
X135676000Y-72673000D01*
X135676000Y-75155000D02*
X135676000Y-78024000D01*
X135716000Y-69834000D02*
X135716000Y-72673000D01*
X135716000Y-75155000D02*
X135716000Y-77994000D01*
X135756000Y-69864000D02*
X135756000Y-72673000D01*
X135756000Y-75155000D02*
X135756000Y-77964000D01*
X135796000Y-69894000D02*
X135796000Y-72673000D01*
X135796000Y-75155000D02*
X135796000Y-77934000D01*
X135836000Y-69925000D02*
X135836000Y-72673000D01*
X135836000Y-75155000D02*
X135836000Y-77903000D01*
X135876000Y-69957000D02*
X135876000Y-72673000D01*
X135876000Y-75155000D02*
X135876000Y-77871000D01*
X135916000Y-69989000D02*
X135916000Y-72673000D01*
X135916000Y-75155000D02*
X135916000Y-77839000D01*
X135956000Y-70022000D02*
X135956000Y-72673000D01*
X135956000Y-75155000D02*
X135956000Y-77806000D01*
X135996000Y-70056000D02*
X135996000Y-72673000D01*
X135996000Y-75155000D02*
X135996000Y-77772000D01*
X136036000Y-70090000D02*
X136036000Y-72673000D01*
X136036000Y-75155000D02*
X136036000Y-77738000D01*
X136076000Y-70125000D02*
X136076000Y-72673000D01*
X136076000Y-75155000D02*
X136076000Y-77703000D01*
X136116000Y-70161000D02*
X136116000Y-72673000D01*
X136116000Y-75155000D02*
X136116000Y-77667000D01*
X136156000Y-70198000D02*
X136156000Y-72673000D01*
X136156000Y-75155000D02*
X136156000Y-77630000D01*
X136196000Y-70235000D02*
X136196000Y-72673000D01*
X136196000Y-75155000D02*
X136196000Y-77593000D01*
X136236000Y-70274000D02*
X136236000Y-72673000D01*
X136236000Y-75155000D02*
X136236000Y-77554000D01*
X136276000Y-70313000D02*
X136276000Y-72673000D01*
X136276000Y-75155000D02*
X136276000Y-77515000D01*
X136316000Y-70353000D02*
X136316000Y-72673000D01*
X136316000Y-75155000D02*
X136316000Y-77475000D01*
X136356000Y-70394000D02*
X136356000Y-72673000D01*
X136356000Y-75155000D02*
X136356000Y-77434000D01*
X136396000Y-70436000D02*
X136396000Y-72673000D01*
X136396000Y-75155000D02*
X136396000Y-77392000D01*
X136436000Y-70478000D02*
X136436000Y-77350000D01*
X136476000Y-70522000D02*
X136476000Y-77306000D01*
X136516000Y-70567000D02*
X136516000Y-77261000D01*
X136556000Y-70613000D02*
X136556000Y-77215000D01*
X136596000Y-70660000D02*
X136596000Y-77168000D01*
X136636000Y-70708000D02*
X136636000Y-77120000D01*
X136676000Y-70758000D02*
X136676000Y-77070000D01*
X136716000Y-70808000D02*
X136716000Y-77020000D01*
X136756000Y-70860000D02*
X136756000Y-76968000D01*
X136796000Y-70914000D02*
X136796000Y-76914000D01*
X136836000Y-70969000D02*
X136836000Y-76859000D01*
X136876000Y-71025000D02*
X136876000Y-76803000D01*
X136916000Y-71084000D02*
X136916000Y-76744000D01*
X136956000Y-71144000D02*
X136956000Y-76684000D01*
X136996000Y-71205000D02*
X136996000Y-76623000D01*
X137036000Y-71269000D02*
X137036000Y-76559000D01*
X137076000Y-71335000D02*
X137076000Y-76493000D01*
X137116000Y-71404000D02*
X137116000Y-76424000D01*
X137156000Y-71475000D02*
X137156000Y-76353000D01*
X137196000Y-71549000D02*
X137196000Y-76279000D01*
X137236000Y-71625000D02*
X137236000Y-76203000D01*
X137276000Y-71705000D02*
X137276000Y-76123000D01*
X137316000Y-71789000D02*
X137316000Y-76039000D01*
X137356000Y-71877000D02*
X137356000Y-75951000D01*
X137396000Y-71970000D02*
X137396000Y-75858000D01*
X137436000Y-72068000D02*
X137436000Y-75760000D01*
X137476000Y-72172000D02*
X137476000Y-75656000D01*
X137516000Y-72284000D02*
X137516000Y-75544000D01*
X137556000Y-72404000D02*
X137556000Y-75424000D01*
X137596000Y-72536000D02*
X137596000Y-75292000D01*
X137636000Y-72684000D02*
X137636000Y-75144000D01*
X137676000Y-72852000D02*
X137676000Y-74976000D01*
X137716000Y-73052000D02*
X137716000Y-74776000D01*
X137756000Y-73315000D02*
X137756000Y-74513000D01*
X127195354Y-71039000D02*
X128195354Y-71039000D01*
X127695354Y-70539000D02*
X127695354Y-71539000D01*
X131392000Y-91113000D02*
X131392000Y-94053000D01*
X131392000Y-94053000D02*
X136832000Y-94053000D01*
X136832000Y-94053000D02*
X136832000Y-91113000D01*
X136832000Y-91113000D02*
X131392000Y-91113000D01*
X130372000Y-92583000D02*
X131392000Y-92583000D01*
X137852000Y-92583000D02*
X136832000Y-92583000D01*
X132292000Y-91113000D02*
X132292000Y-94053000D01*
X132412000Y-91113000D02*
X132412000Y-94053000D01*
X132172000Y-91113000D02*
X132172000Y-94053000D01*
X140848000Y-74833241D02*
X141478000Y-74833241D01*
X141163000Y-75148241D02*
X141163000Y-74518241D01*
X142600000Y-68407000D02*
X143404000Y-68407000D01*
X142369000Y-68447000D02*
X143635000Y-68447000D01*
X142200000Y-68487000D02*
X143804000Y-68487000D01*
X142062000Y-68527000D02*
X143942000Y-68527000D01*
X141943000Y-68567000D02*
X144061000Y-68567000D01*
X141837000Y-68607000D02*
X144167000Y-68607000D01*
X141740000Y-68647000D02*
X144264000Y-68647000D01*
X141652000Y-68687000D02*
X144352000Y-68687000D01*
X141570000Y-68727000D02*
X144434000Y-68727000D01*
X141493000Y-68767000D02*
X144511000Y-68767000D01*
X141421000Y-68807000D02*
X144583000Y-68807000D01*
X141352000Y-68847000D02*
X144652000Y-68847000D01*
X141288000Y-68887000D02*
X144716000Y-68887000D01*
X141226000Y-68927000D02*
X144778000Y-68927000D01*
X141168000Y-68967000D02*
X144836000Y-68967000D01*
X141112000Y-69007000D02*
X144892000Y-69007000D01*
X141058000Y-69047000D02*
X144946000Y-69047000D01*
X141007000Y-69087000D02*
X144997000Y-69087000D01*
X140958000Y-69127000D02*
X145046000Y-69127000D01*
X140910000Y-69167000D02*
X145094000Y-69167000D01*
X140865000Y-69207000D02*
X145139000Y-69207000D01*
X140820000Y-69247000D02*
X145184000Y-69247000D01*
X140778000Y-69287000D02*
X145226000Y-69287000D01*
X140737000Y-69327000D02*
X145267000Y-69327000D01*
X144042000Y-69367000D02*
X145307000Y-69367000D01*
X140697000Y-69367000D02*
X141962000Y-69367000D01*
X144042000Y-69407000D02*
X145345000Y-69407000D01*
X140659000Y-69407000D02*
X141962000Y-69407000D01*
X144042000Y-69447000D02*
X145382000Y-69447000D01*
X140622000Y-69447000D02*
X141962000Y-69447000D01*
X144042000Y-69487000D02*
X145418000Y-69487000D01*
X140586000Y-69487000D02*
X141962000Y-69487000D01*
X144042000Y-69527000D02*
X145452000Y-69527000D01*
X140552000Y-69527000D02*
X141962000Y-69527000D01*
X144042000Y-69567000D02*
X145486000Y-69567000D01*
X140518000Y-69567000D02*
X141962000Y-69567000D01*
X144042000Y-69607000D02*
X145518000Y-69607000D01*
X140486000Y-69607000D02*
X141962000Y-69607000D01*
X144042000Y-69647000D02*
X145550000Y-69647000D01*
X140454000Y-69647000D02*
X141962000Y-69647000D01*
X144042000Y-69687000D02*
X145580000Y-69687000D01*
X140424000Y-69687000D02*
X141962000Y-69687000D01*
X144042000Y-69727000D02*
X145609000Y-69727000D01*
X140395000Y-69727000D02*
X141962000Y-69727000D01*
X144042000Y-69767000D02*
X145638000Y-69767000D01*
X140366000Y-69767000D02*
X141962000Y-69767000D01*
X144042000Y-69807000D02*
X145666000Y-69807000D01*
X140338000Y-69807000D02*
X141962000Y-69807000D01*
X144042000Y-69847000D02*
X145692000Y-69847000D01*
X140312000Y-69847000D02*
X141962000Y-69847000D01*
X144042000Y-69887000D02*
X145718000Y-69887000D01*
X140286000Y-69887000D02*
X141962000Y-69887000D01*
X144042000Y-69927000D02*
X145744000Y-69927000D01*
X140260000Y-69927000D02*
X141962000Y-69927000D01*
X144042000Y-69967000D02*
X145768000Y-69967000D01*
X140236000Y-69967000D02*
X141962000Y-69967000D01*
X144042000Y-70007000D02*
X145792000Y-70007000D01*
X140212000Y-70007000D02*
X141962000Y-70007000D01*
X144042000Y-70047000D02*
X145814000Y-70047000D01*
X140190000Y-70047000D02*
X141962000Y-70047000D01*
X144042000Y-70087000D02*
X145836000Y-70087000D01*
X140168000Y-70087000D02*
X141962000Y-70087000D01*
X144042000Y-70127000D02*
X145858000Y-70127000D01*
X140146000Y-70127000D02*
X141962000Y-70127000D01*
X144042000Y-70167000D02*
X145878000Y-70167000D01*
X140126000Y-70167000D02*
X141962000Y-70167000D01*
X144042000Y-70207000D02*
X145898000Y-70207000D01*
X140106000Y-70207000D02*
X141962000Y-70207000D01*
X144042000Y-70247000D02*
X145918000Y-70247000D01*
X140086000Y-70247000D02*
X141962000Y-70247000D01*
X144042000Y-70287000D02*
X145936000Y-70287000D01*
X140068000Y-70287000D02*
X141962000Y-70287000D01*
X144042000Y-70327000D02*
X145954000Y-70327000D01*
X140050000Y-70327000D02*
X141962000Y-70327000D01*
X144042000Y-70367000D02*
X145972000Y-70367000D01*
X140032000Y-70367000D02*
X141962000Y-70367000D01*
X144042000Y-70407000D02*
X145988000Y-70407000D01*
X140016000Y-70407000D02*
X141962000Y-70407000D01*
X144042000Y-70447000D02*
X146004000Y-70447000D01*
X140000000Y-70447000D02*
X141962000Y-70447000D01*
X144042000Y-70487000D02*
X146020000Y-70487000D01*
X139984000Y-70487000D02*
X141962000Y-70487000D01*
X144042000Y-70527000D02*
X146035000Y-70527000D01*
X139969000Y-70527000D02*
X141962000Y-70527000D01*
X144042000Y-70567000D02*
X146049000Y-70567000D01*
X139955000Y-70567000D02*
X141962000Y-70567000D01*
X144042000Y-70607000D02*
X146063000Y-70607000D01*
X139941000Y-70607000D02*
X141962000Y-70607000D01*
X144042000Y-70647000D02*
X146076000Y-70647000D01*
X139928000Y-70647000D02*
X141962000Y-70647000D01*
X144042000Y-70687000D02*
X146088000Y-70687000D01*
X139916000Y-70687000D02*
X141962000Y-70687000D01*
X144042000Y-70727000D02*
X146100000Y-70727000D01*
X139904000Y-70727000D02*
X141962000Y-70727000D01*
X144042000Y-70767000D02*
X146112000Y-70767000D01*
X139892000Y-70767000D02*
X141962000Y-70767000D01*
X144042000Y-70807000D02*
X146123000Y-70807000D01*
X139881000Y-70807000D02*
X141962000Y-70807000D01*
X144042000Y-70847000D02*
X146133000Y-70847000D01*
X139871000Y-70847000D02*
X141962000Y-70847000D01*
X144042000Y-70887000D02*
X146143000Y-70887000D01*
X139861000Y-70887000D02*
X141962000Y-70887000D01*
X144042000Y-70927000D02*
X146152000Y-70927000D01*
X139852000Y-70927000D02*
X141962000Y-70927000D01*
X144042000Y-70968000D02*
X146161000Y-70968000D01*
X139843000Y-70968000D02*
X141962000Y-70968000D01*
X144042000Y-71008000D02*
X146169000Y-71008000D01*
X139835000Y-71008000D02*
X141962000Y-71008000D01*
X144042000Y-71048000D02*
X146177000Y-71048000D01*
X139827000Y-71048000D02*
X141962000Y-71048000D01*
X144042000Y-71088000D02*
X146184000Y-71088000D01*
X139820000Y-71088000D02*
X141962000Y-71088000D01*
X144042000Y-71128000D02*
X146191000Y-71128000D01*
X139813000Y-71128000D02*
X141962000Y-71128000D01*
X144042000Y-71168000D02*
X146197000Y-71168000D01*
X139807000Y-71168000D02*
X141962000Y-71168000D01*
X144042000Y-71208000D02*
X146203000Y-71208000D01*
X139801000Y-71208000D02*
X141962000Y-71208000D01*
X144042000Y-71248000D02*
X146208000Y-71248000D01*
X139796000Y-71248000D02*
X141962000Y-71248000D01*
X144042000Y-71288000D02*
X146213000Y-71288000D01*
X139791000Y-71288000D02*
X141962000Y-71288000D01*
X144042000Y-71328000D02*
X146217000Y-71328000D01*
X139787000Y-71328000D02*
X141962000Y-71328000D01*
X144042000Y-71368000D02*
X146220000Y-71368000D01*
X139784000Y-71368000D02*
X141962000Y-71368000D01*
X144042000Y-71408000D02*
X146224000Y-71408000D01*
X139780000Y-71408000D02*
X141962000Y-71408000D01*
X139778000Y-71448000D02*
X146226000Y-71448000D01*
X139775000Y-71488000D02*
X146229000Y-71488000D01*
X139774000Y-71528000D02*
X146230000Y-71528000D01*
X139772000Y-71568000D02*
X146232000Y-71568000D01*
X139772000Y-71608000D02*
X146232000Y-71608000D01*
X139772000Y-71648000D02*
X146232000Y-71648000D01*
X146272000Y-71648000D02*
G75*
G03*
X146272000Y-71648000I-3270000J0D01*
G01*
X135309000Y-103939000D02*
X138249000Y-103939000D01*
X138249000Y-103939000D02*
X138249000Y-98499000D01*
X138249000Y-98499000D02*
X135309000Y-98499000D01*
X135309000Y-98499000D02*
X135309000Y-103939000D01*
X136779000Y-104959000D02*
X136779000Y-103939000D01*
X136779000Y-97479000D02*
X136779000Y-98499000D01*
X135309000Y-103039000D02*
X138249000Y-103039000D01*
X135309000Y-102919000D02*
X138249000Y-102919000D01*
X135309000Y-103159000D02*
X138249000Y-103159000D01*
X130502000Y-99279000D02*
X127562000Y-99279000D01*
X130502000Y-99519000D02*
X127562000Y-99519000D01*
X130502000Y-99399000D02*
X127562000Y-99399000D01*
X129032000Y-104959000D02*
X129032000Y-103939000D01*
X129032000Y-97479000D02*
X129032000Y-98499000D01*
X130502000Y-103939000D02*
X130502000Y-98499000D01*
X127562000Y-103939000D02*
X130502000Y-103939000D01*
X127562000Y-98499000D02*
X127562000Y-103939000D01*
X130502000Y-98499000D02*
X127562000Y-98499000D01*
X131435500Y-103159000D02*
X134375500Y-103159000D01*
X131435500Y-102919000D02*
X134375500Y-102919000D01*
X131435500Y-103039000D02*
X134375500Y-103039000D01*
X132905500Y-97479000D02*
X132905500Y-98499000D01*
X132905500Y-104959000D02*
X132905500Y-103939000D01*
X131435500Y-98499000D02*
X131435500Y-103939000D01*
X134375500Y-98499000D02*
X131435500Y-98499000D01*
X134375500Y-103939000D02*
X134375500Y-98499000D01*
X131435500Y-103939000D02*
X134375500Y-103939000D01*
X148799000Y-107188000D02*
G75*
G03*
X148799000Y-107188000I-2500000J0D01*
G01*
X143739000Y-105643000D02*
X143739000Y-108733000D01*
X149289000Y-107188462D02*
G75*
G03*
X143739000Y-105643170I-2990000J462D01*
G01*
X149289000Y-107187538D02*
G75*
G02*
X143739000Y-108732830I-2990000J-462D01*
G01*
X147849000Y-78593000D02*
X144759000Y-78593000D01*
X148804000Y-81153000D02*
G75*
G03*
X148804000Y-81153000I-2500000J0D01*
G01*
X146304462Y-84143000D02*
G75*
G02*
X144759170Y-78593000I-462J2990000D01*
G01*
X146303538Y-84143000D02*
G75*
G03*
X147848830Y-78593000I462J2990000D01*
G01*
X136170000Y-117884000D02*
X127170000Y-117884000D01*
X127170000Y-117884000D02*
X127170000Y-108684000D01*
X127170000Y-108684000D02*
X141770000Y-108684000D01*
X141770000Y-108684000D02*
X141770000Y-111484000D01*
X141770000Y-115084000D02*
X141770000Y-117884000D01*
X141770000Y-117884000D02*
X139770000Y-117884000D01*
X140270000Y-108444000D02*
X142010000Y-108444000D01*
X142010000Y-108444000D02*
X142010000Y-110184000D01*
X151324000Y-73847000D02*
X156524000Y-73847000D01*
X151324000Y-71247000D02*
X151324000Y-73847000D01*
X156524000Y-68647000D02*
X156524000Y-73847000D01*
X151324000Y-71247000D02*
X153924000Y-71247000D01*
X153924000Y-71247000D02*
X153924000Y-68647000D01*
X153924000Y-68647000D02*
X156524000Y-68647000D01*
X151324000Y-69977000D02*
X151324000Y-68647000D01*
X151324000Y-68647000D02*
X152654000Y-68647000D01*
X151324000Y-113605000D02*
X152654000Y-113605000D01*
X151324000Y-114935000D02*
X151324000Y-113605000D01*
X153924000Y-113605000D02*
X156524000Y-113605000D01*
X153924000Y-116205000D02*
X153924000Y-113605000D01*
X151324000Y-116205000D02*
X153924000Y-116205000D01*
X156524000Y-113605000D02*
X156524000Y-118805000D01*
X151324000Y-116205000D02*
X151324000Y-118805000D01*
X151324000Y-118805000D02*
X156524000Y-118805000D01*
X148050000Y-103114250D02*
X148050000Y-103444250D01*
X148050000Y-103444250D02*
X141510000Y-103444250D01*
X141510000Y-103444250D02*
X141510000Y-103114250D01*
X148050000Y-101034250D02*
X148050000Y-100704250D01*
X148050000Y-100704250D02*
X141510000Y-100704250D01*
X141510000Y-100704250D02*
X141510000Y-101034250D01*
X148050000Y-87616750D02*
X148050000Y-87286750D01*
X141510000Y-87616750D02*
X148050000Y-87616750D01*
X141510000Y-87286750D02*
X141510000Y-87616750D01*
X148050000Y-84876750D02*
X148050000Y-85206750D01*
X141510000Y-84876750D02*
X148050000Y-84876750D01*
X141510000Y-85206750D02*
X141510000Y-84876750D01*
D12*
X149420000Y-88220000D02*
X149420000Y-88720000D01*
X149420000Y-88220000D02*
X148920000Y-88220000D01*
X149420000Y-100120000D02*
X149420000Y-99620000D01*
X149420000Y-100120000D02*
X148920000Y-100120000D01*
X145220000Y-100120000D02*
X145220000Y-99620000D01*
X145220000Y-100120000D02*
X145720000Y-100120000D01*
X145220000Y-88220000D02*
X145720000Y-88220000D01*
X145220000Y-88220000D02*
X145220000Y-88720000D01*
D11*
X128302000Y-90210000D02*
X128302000Y-79970000D01*
X132943000Y-90210000D02*
X132943000Y-79970000D01*
X128302000Y-90210000D02*
X132943000Y-90210000D01*
X128302000Y-79970000D02*
X132943000Y-79970000D01*
X129812000Y-90210000D02*
X129812000Y-79970000D01*
X128302000Y-86940000D02*
X129812000Y-86940000D01*
X128302000Y-83239000D02*
X129812000Y-83239000D01*
D10*
X137120333Y-78970142D02*
X137072714Y-79017761D01*
X136929857Y-79065380D01*
X136834619Y-79065380D01*
X136691761Y-79017761D01*
X136596523Y-78922523D01*
X136548904Y-78827285D01*
X136501285Y-78636809D01*
X136501285Y-78493952D01*
X136548904Y-78303476D01*
X136596523Y-78208238D01*
X136691761Y-78113000D01*
X136834619Y-78065380D01*
X136929857Y-78065380D01*
X137072714Y-78113000D01*
X137120333Y-78160619D01*
X138072714Y-79065380D02*
X137501285Y-79065380D01*
X137787000Y-79065380D02*
X137787000Y-78065380D01*
X137691761Y-78208238D01*
X137596523Y-78303476D01*
X137501285Y-78351095D01*
X133627904Y-93035380D02*
X133627904Y-92035380D01*
X133866000Y-92035380D01*
X134008857Y-92083000D01*
X134104095Y-92178238D01*
X134151714Y-92273476D01*
X134199333Y-92463952D01*
X134199333Y-92606809D01*
X134151714Y-92797285D01*
X134104095Y-92892523D01*
X134008857Y-92987761D01*
X133866000Y-93035380D01*
X133627904Y-93035380D01*
X135151714Y-93035380D02*
X134580285Y-93035380D01*
X134866000Y-93035380D02*
X134866000Y-92035380D01*
X134770761Y-92178238D01*
X134675523Y-92273476D01*
X134580285Y-92321095D01*
X130421095Y-92146380D02*
X130421095Y-91146380D01*
X130992523Y-92146380D02*
X130563952Y-91574952D01*
X130992523Y-91146380D02*
X130421095Y-91717809D01*
X142835333Y-76303142D02*
X142787714Y-76350761D01*
X142644857Y-76398380D01*
X142549619Y-76398380D01*
X142406761Y-76350761D01*
X142311523Y-76255523D01*
X142263904Y-76160285D01*
X142216285Y-75969809D01*
X142216285Y-75826952D01*
X142263904Y-75636476D01*
X142311523Y-75541238D01*
X142406761Y-75446000D01*
X142549619Y-75398380D01*
X142644857Y-75398380D01*
X142787714Y-75446000D01*
X142835333Y-75493619D01*
X143216285Y-75493619D02*
X143263904Y-75446000D01*
X143359142Y-75398380D01*
X143597238Y-75398380D01*
X143692476Y-75446000D01*
X143740095Y-75493619D01*
X143787714Y-75588857D01*
X143787714Y-75684095D01*
X143740095Y-75826952D01*
X143168666Y-76398380D01*
X143787714Y-76398380D01*
X136040904Y-101417380D02*
X136040904Y-100417380D01*
X136279000Y-100417380D01*
X136421857Y-100465000D01*
X136517095Y-100560238D01*
X136564714Y-100655476D01*
X136612333Y-100845952D01*
X136612333Y-100988809D01*
X136564714Y-101179285D01*
X136517095Y-101274523D01*
X136421857Y-101369761D01*
X136279000Y-101417380D01*
X136040904Y-101417380D01*
X136993285Y-100512619D02*
X137040904Y-100465000D01*
X137136142Y-100417380D01*
X137374238Y-100417380D01*
X137469476Y-100465000D01*
X137517095Y-100512619D01*
X137564714Y-100607857D01*
X137564714Y-100703095D01*
X137517095Y-100845952D01*
X136945666Y-101417380D01*
X137564714Y-101417380D01*
X139644380Y-106433904D02*
X138644380Y-106433904D01*
X139644380Y-105862476D02*
X139072952Y-106291047D01*
X138644380Y-105862476D02*
X139215809Y-106433904D01*
X128293904Y-102052380D02*
X128293904Y-101052380D01*
X128532000Y-101052380D01*
X128674857Y-101100000D01*
X128770095Y-101195238D01*
X128817714Y-101290476D01*
X128865333Y-101480952D01*
X128865333Y-101623809D01*
X128817714Y-101814285D01*
X128770095Y-101909523D01*
X128674857Y-102004761D01*
X128532000Y-102052380D01*
X128293904Y-102052380D01*
X129198666Y-101052380D02*
X129817714Y-101052380D01*
X129484380Y-101433333D01*
X129627238Y-101433333D01*
X129722476Y-101480952D01*
X129770095Y-101528571D01*
X129817714Y-101623809D01*
X129817714Y-101861904D01*
X129770095Y-101957142D01*
X129722476Y-102004761D01*
X129627238Y-102052380D01*
X129341523Y-102052380D01*
X129246285Y-102004761D01*
X129198666Y-101957142D01*
X131584380Y-96400904D02*
X130584380Y-96400904D01*
X131584380Y-95829476D02*
X131012952Y-96258047D01*
X130584380Y-95829476D02*
X131155809Y-96400904D01*
X132103904Y-101417380D02*
X132103904Y-100417380D01*
X132342000Y-100417380D01*
X132484857Y-100465000D01*
X132580095Y-100560238D01*
X132627714Y-100655476D01*
X132675333Y-100845952D01*
X132675333Y-100988809D01*
X132627714Y-101179285D01*
X132580095Y-101274523D01*
X132484857Y-101369761D01*
X132342000Y-101417380D01*
X132103904Y-101417380D01*
X133532476Y-100750714D02*
X133532476Y-101417380D01*
X133294380Y-100369761D02*
X133056285Y-101084047D01*
X133675333Y-101084047D01*
X135199380Y-106560904D02*
X134199380Y-106560904D01*
X135199380Y-105989476D02*
X134627952Y-106418047D01*
X134199380Y-105989476D02*
X134770809Y-106560904D01*
X145692904Y-111704380D02*
X145692904Y-110704380D01*
X145931000Y-110704380D01*
X146073857Y-110752000D01*
X146169095Y-110847238D01*
X146216714Y-110942476D01*
X146264333Y-111132952D01*
X146264333Y-111275809D01*
X146216714Y-111466285D01*
X146169095Y-111561523D01*
X146073857Y-111656761D01*
X145931000Y-111704380D01*
X145692904Y-111704380D01*
X147169095Y-110704380D02*
X146692904Y-110704380D01*
X146645285Y-111180571D01*
X146692904Y-111132952D01*
X146788142Y-111085333D01*
X147026238Y-111085333D01*
X147121476Y-111132952D01*
X147169095Y-111180571D01*
X147216714Y-111275809D01*
X147216714Y-111513904D01*
X147169095Y-111609142D01*
X147121476Y-111656761D01*
X147026238Y-111704380D01*
X146788142Y-111704380D01*
X146692904Y-111656761D01*
X146645285Y-111609142D01*
X147089904Y-77414380D02*
X147089904Y-76414380D01*
X147328000Y-76414380D01*
X147470857Y-76462000D01*
X147566095Y-76557238D01*
X147613714Y-76652476D01*
X147661333Y-76842952D01*
X147661333Y-76985809D01*
X147613714Y-77176285D01*
X147566095Y-77271523D01*
X147470857Y-77366761D01*
X147328000Y-77414380D01*
X147089904Y-77414380D01*
X148518476Y-76414380D02*
X148328000Y-76414380D01*
X148232761Y-76462000D01*
X148185142Y-76509619D01*
X148089904Y-76652476D01*
X148042285Y-76842952D01*
X148042285Y-77223904D01*
X148089904Y-77319142D01*
X148137523Y-77366761D01*
X148232761Y-77414380D01*
X148423238Y-77414380D01*
X148518476Y-77366761D01*
X148566095Y-77319142D01*
X148613714Y-77223904D01*
X148613714Y-76985809D01*
X148566095Y-76890571D01*
X148518476Y-76842952D01*
X148423238Y-76795333D01*
X148232761Y-76795333D01*
X148137523Y-76842952D01*
X148089904Y-76890571D01*
X148042285Y-76985809D01*
X144613333Y-102560380D02*
X144280000Y-102084190D01*
X144041904Y-102560380D02*
X144041904Y-101560380D01*
X144422857Y-101560380D01*
X144518095Y-101608000D01*
X144565714Y-101655619D01*
X144613333Y-101750857D01*
X144613333Y-101893714D01*
X144565714Y-101988952D01*
X144518095Y-102036571D01*
X144422857Y-102084190D01*
X144041904Y-102084190D01*
X145565714Y-102560380D02*
X144994285Y-102560380D01*
X145280000Y-102560380D02*
X145280000Y-101560380D01*
X145184761Y-101703238D01*
X145089523Y-101798476D01*
X144994285Y-101846095D01*
X144740333Y-86685380D02*
X144407000Y-86209190D01*
X144168904Y-86685380D02*
X144168904Y-85685380D01*
X144549857Y-85685380D01*
X144645095Y-85733000D01*
X144692714Y-85780619D01*
X144740333Y-85875857D01*
X144740333Y-86018714D01*
X144692714Y-86113952D01*
X144645095Y-86161571D01*
X144549857Y-86209190D01*
X144168904Y-86209190D01*
X145121285Y-85780619D02*
X145168904Y-85733000D01*
X145264142Y-85685380D01*
X145502238Y-85685380D01*
X145597476Y-85733000D01*
X145645095Y-85780619D01*
X145692714Y-85875857D01*
X145692714Y-85971095D01*
X145645095Y-86113952D01*
X145073666Y-86685380D01*
X145692714Y-86685380D01*
X146113666Y-89685761D02*
X146256523Y-89733380D01*
X146494619Y-89733380D01*
X146589857Y-89685761D01*
X146637476Y-89638142D01*
X146685095Y-89542904D01*
X146685095Y-89447666D01*
X146637476Y-89352428D01*
X146589857Y-89304809D01*
X146494619Y-89257190D01*
X146304142Y-89209571D01*
X146208904Y-89161952D01*
X146161285Y-89114333D01*
X146113666Y-89019095D01*
X146113666Y-88923857D01*
X146161285Y-88828619D01*
X146208904Y-88781000D01*
X146304142Y-88733380D01*
X146542238Y-88733380D01*
X146685095Y-88781000D01*
X147018428Y-88733380D02*
X147256523Y-89733380D01*
X147447000Y-89019095D01*
X147637476Y-89733380D01*
X147875571Y-88733380D01*
X148780333Y-89733380D02*
X148208904Y-89733380D01*
X148494619Y-89733380D02*
X148494619Y-88733380D01*
X148399380Y-88876238D01*
X148304142Y-88971476D01*
X148208904Y-89019095D01*
X133477095Y-84415380D02*
X133477095Y-85224904D01*
X133524714Y-85320142D01*
X133572333Y-85367761D01*
X133667571Y-85415380D01*
X133858047Y-85415380D01*
X133953285Y-85367761D01*
X134000904Y-85320142D01*
X134048523Y-85224904D01*
X134048523Y-84415380D01*
X135048523Y-85415380D02*
X134477095Y-85415380D01*
X134762809Y-85415380D02*
X134762809Y-84415380D01*
X134667571Y-84558238D01*
X134572333Y-84653476D01*
X134477095Y-84701095D01*
M02*
